<svg xmlns="http://www.w3.org/2000/svg" xmlns:xlink="http://www.w3.org/1999/xlink" viewBox="0,0,256,256" width="50px" height="50px"><g fill="#ffffff" fill-rule="nonzero" stroke="none" stroke-width="1" stroke-linecap="butt" stroke-linejoin="miter" stroke-miterlimit="10" stroke-dasharray="" stroke-dashoffset="0" font-family="none" font-weight="none" font-size="none" text-anchor="none" style="mix-blend-mode: normal"><g transform="scale(5.12,5.12)"><path d="M23.66992,1.90625c-0.79011,0.01412 -1.58974,0.07395 -2.39648,0.18945c-1.186,0.258 -2.33147,0.67489 -3.35547,1.21289c-1.29,0.586 -2.62408,1.19134 -3.83008,1.27734c-0.061,0.004 -0.12069,0.0143 -0.17969,0.0293c-1.686,0.435 -3.14017,1.47625 -4.07617,2.90625l-0.15039,0.21875c-0.031,0.046 -0.05998,0.09453 -0.08398,0.14453c-0.825,1.726 -1.04461,3.70272 -0.59961,5.63672c0.286,0.935 0.62703,1.83313 0.95703,2.70313l0.10156,0.26367c0.771,1.809 1.33101,3.70944 1.66601,5.64844c0.017,0.098 0.0478,0.19325 0.0918,0.28125c0.329,0.652 0.58644,1.33817 0.77344,2.07617c0.083,0.289 0.16776,0.58577 0.25976,0.88477c0.026,0.085 0.07609,0.15456 0.12109,0.22656c0.002,0.105 0.01578,0.2105 0.05078,0.3125l1.38867,3.97266c0.094,0.27 0.2985,0.48575 0.5625,0.59375c0.265,0.108 0.56236,0.09766 0.81836,-0.02734c2.622,-1.274 8.76333,-4.25698 17.23633,1.04102c0.162,0.101 0.34625,0.15234 0.53125,0.15234c0.135,0 0.26948,-0.02603 0.39648,-0.08203c0.302,-0.131 0.52098,-0.40161 0.58398,-0.72461c0.205,-1.043 0.27794,-2.71708 0.21094,-4.08008l0.0625,-0.29883c0.081,-0.395 0.16109,-0.79541 0.24609,-1.19141c0.792,-1.762 2.19283,-3.46528 3.54883,-5.11328c2.125,-2.583 4.32281,-5.25328 4.13281,-8.23828c-0.009,-0.136 -0.04447,-0.26962 -0.10547,-0.39062c-0.313,-0.616 -0.66366,-1.21567 -1.09766,-1.88867l-0.08398,-0.13477c-0.101,-0.158 -0.20264,-0.31389 -0.30664,-0.46289c-0.078,-0.112 -0.15733,-0.21827 -0.23633,-0.32227l-0.08398,-0.11328c-0.159,-0.212 -0.31747,-0.42305 -0.48047,-0.62305c-0.088,-0.106 -0.17502,-0.20689 -0.29102,-0.33789c-0.181,-0.208 -0.36092,-0.40861 -0.54492,-0.59961l-0.24219,-0.24609c-0.213,-0.211 -0.42672,-0.4117 -0.63672,-0.5957l-0.1543,-0.13281c-2.659,-2.268 -5.38973,-2.86452 -7.05273,-3.22852l-0.92773,-0.20898c-2.166,-0.4155 -4.45389,-0.77284 -6.82422,-0.73047zM24.66211,3.91016c0.905,0.02663 1.82484,0.11314 2.77734,0.24414c-3.258,4.851 -2.70236,11.41081 -1.94336,17.13281c-0.994,-0.077 -2.0122,-0.09883 -3.0332,-0.04883c-0.578,-3.406 -1.18227,-7.68178 -1.69727,-11.05078c-0.154,-1.517 -0.02042,-3.04863 0.39258,-4.51562c0.41,-0.883 0.44841,-1.38144 0.81641,-1.64844c0.8935,-0.1075 1.7825,-0.13991 2.6875,-0.11328zM21.43359,4.11914c-0.443,0.375 -0.76633,0.9668 -0.98633,1.7168c-0.369,1.525 -0.49409,3.09711 -0.37109,4.66211c0.244,3.654 0.90773,7.26148 1.92773,10.77148c-0.964,0.068 -1.9227,0.19634 -2.8457,0.40234c-0.7,-2.413 -0.57673,-5.15494 -0.80273,-7.71094c-0.229,-2.922 -1.19006,-5.69013 -2.41406,-7.32813c-0.084,-0.2 -0.07383,-0.30081 -0.04883,-0.38281c0.532,-0.156 1.05627,-0.3465 1.57227,-0.5625c0.061,0.034 0.12273,0.06733 0.17773,0.11133l0.01953,-0.02344c-0.054,-0.038 -0.11097,-0.06661 -0.16797,-0.09961c0.442,-0.186 0.87878,-0.37731 1.30078,-0.57031c0.854,-0.448 1.75867,-0.77433 2.63867,-0.98633zM17.64258,5.79883l-0.01172,0.01367h0.03125c-0.006,-0.005 -0.01253,-0.00767 -0.01953,-0.01367zM27.49414,4.16016c0.835,0.116 1.69375,0.26255 2.59375,0.43555l0.9375,0.21094c0.693,0.152 1.55033,0.34564 2.48633,0.68164c-1.62,2.897 -2.71294,6.06166 -3.21094,9.34766c-0.358,2.376 -0.52153,4.77383 -0.51953,7.17383c-1.218,-0.333 -2.61208,-0.57908 -4.08008,-0.70508c-0.058,-1.275 -0.09988,-2.57178 -0.04687,-3.30078c0.174,-2.415 0.37584,-9.88275 1.83984,-13.84375zM33.76758,5.57617c1.076,0.413 2.2482,1.02858 3.4082,2.01758l0.13086,0.11523c0.184,0.161 0.36678,0.33362 0.55078,0.51563l0.21094,0.21289c0.158,0.165 0.31586,0.33959 0.50586,0.55859c0.075,0.086 0.14966,0.17177 0.22266,0.25977c0.11,0.135 0.21717,0.27983 0.32617,0.42383c-1.848,0.718 -4.91598,7.53236 -5.33398,13.69336c-0.073,0.129 -0.1488,0.25672 -0.2168,0.38672c-0.835,-0.702 -2.01994,-1.20983 -3.08594,-1.54883c-0.168,-0.053 -0.34939,-0.10039 -0.52539,-0.15039c0.16,-2.416 0.38647,-4.94828 0.60547,-7.23828c0.71,-3.76 2.52917,-5.68809 3.20117,-9.24609zM15.58008,6.3457c0.049,0.14 0.12556,0.27177 0.22656,0.38477c1.212,1.644 1.44698,4.31838 1.70898,7.23438c0.223,2.571 0.47873,5.32786 1.42773,7.75586c-0.809,0.193 -1.58441,0.44762 -2.31641,0.76563c-0.598,-2.163 -0.88298,-4.60164 -1.33398,-6.80664c-0.612,-2.982 -0.69212,-5.65084 -1.70312,-6.46484c-0.388,-0.535 -1.42655,-0.4877 -0.93555,-1.4707c0.117,-0.21 0.26234,-0.40166 0.40234,-0.59766c0.396,-0.242 0.81548,-0.44727 1.27148,-0.57227c0.418,-0.037 0.83595,-0.12052 1.25195,-0.22852zM12.72266,7.34766c-0.094,0.128 -0.18691,0.2583 -0.25391,0.4043c-0.181,0.334 -0.25961,0.7138 -0.22461,1.0918c0.031,0.198 0.11147,0.38588 0.23047,0.54688c0.999,0.797 1.51705,3.32978 2.12305,6.30078c0.457,2.239 0.98592,4.71625 1.79492,6.90625c-0.7,0.323 -1.35045,0.71097 -1.93945,1.16797c-0.198,-0.725 -0.45611,-1.43628 -0.78711,-2.11328c-0.364,-2.042 -0.95886,-4.04116 -1.75586,-5.91016l-0.08594,-0.22656c-0.318,-0.839 -0.64748,-1.70581 -0.89649,-2.50781c-0.32,-1.401 -0.16455,-2.88645 0.43945,-4.18945l0.12109,-0.17383c0.333,-0.509 0.75237,-0.94587 1.23438,-1.29687zM39.21484,9.80078c0.002,0.002 0.00191,0.00286 0.00391,0.00586l0.09375,0.12305c0.066,0.085 0.13036,0.17172 0.19336,0.26172c0.088,0.126 0.17377,0.25953 0.25977,0.39453l0.08984,0.14062c0.351,0.543 0.63853,1.03153 0.89453,1.51953c0.022,2.135 -1.7815,4.32753 -3.6875,6.64453c-0.742,0.901 -1.49478,1.81753 -2.17578,2.76953c1.539,-3.94 3.02513,-7.86537 4.32813,-11.85937zM23.14648,23.23047c2.42999,-0.05567 4.87369,0.29673 6.73438,0.88867c2.221,0.706 2.75048,1.44616 2.77148,1.66016c0.037,0.246 0.06303,0.54533 0.08203,0.86133l-0.00586,0.02539c-0.034,0.163 -0.0137,0.3207 0.0293,0.4707c0.019,0.61 0.01252,1.267 -0.02148,1.875c-3.487,-1.902 -6.62388,-2.53906 -9.29687,-2.53906c-3.266,0 -5.83781,0.95203 -7.50781,1.70703l-0.82422,-2.35742c1.8135,-1.77525 4.91479,-2.52022 8.03906,-2.5918zM18.05859,32.38086l-0.45312,0.30469c0.192,0.322 0.44042,0.6068 0.73242,0.8418c0.23,0.144 0.49853,0.21417 0.76953,0.20117c0.139,-0.001 0.27616,-0.01959 0.41016,-0.05859l1.51172,-0.54687c0.103,-0.04 0.21227,-0.06055 0.32227,-0.06055c0.166,-0.011 0.3317,0.03395 0.4707,0.12695c0.191,0.156 0.35623,0.33892 0.49023,0.54492l0.42969,-0.24023v-0.01172c-0.186,-0.289 -0.4185,-0.54481 -0.6875,-0.75781c-0.216,-0.15 -0.47333,-0.22961 -0.73633,-0.22461c-0.088,-0.002 -0.17681,0.01483 -0.25781,0.04883l-1.63672,0.54688c-0.104,0.032 -0.21327,0.04597 -0.32227,0.04297c-0.194,0.014 -0.38787,-0.03934 -0.54687,-0.15234c-0.199,-0.173 -0.36609,-0.37747 -0.49609,-0.60547zM34.84961,33.4707c-0.156,0.014 -0.29944,0.09089 -0.39844,0.21289c-0.119,0.101 -0.19489,0.24244 -0.21289,0.39844c-0.011,0.034 -0.011,0.07147 0,0.10547c0.352,0.372 0.80183,0.63381 1.29883,0.75781c0.497,0.153 0.99447,0.3005 1.48047,0.4375c0.492,0.163 0.90969,0.49645 1.17969,0.93945c0.005,0.02 0.005,0.04055 0,0.06055c0,0.093 -0.2233,0.24489 -0.6543,0.46289c-0.218,0.126 -0.5458,0.40336 -1.0918,0.81836c-0.341,0.279 -0.7058,0.52628 -1.0918,0.73828c-0.328,0.146 -0.61594,0.3713 -0.83594,0.6543c-0.005,0.005 -0.00967,0.00962 -0.01367,0.01563c-0.174,0.2 -0.15312,0.50569 0.04688,0.67969c0.104,0.1 0.24367,0.15434 0.38867,0.15234c0.103,-0.002 0.20392,-0.02817 0.29492,-0.07617c0.704,-0.444 1.38039,-0.93198 2.02539,-1.45898c0.654,-0.542 1.33697,-1.05044 2.04297,-1.52344c0.393,-0.24 0.58398,-0.49105 0.58398,-0.74805c-0.013,-0.172 -0.10695,-0.32792 -0.25195,-0.41992c-0.84182,-0.75588 -1.83504,-1.31716 -2.91211,-1.6543l-0.79297,-0.34375c-0.267,-0.121 -0.5537,-0.19198 -0.8457,-0.20898c-0.08,-0.011 -0.16123,-0.011 -0.24023,0zM13.06641,33.52734c-0.698,0.524 -1.46148,0.95334 -2.27148,1.27734c-0.803,0.331 -1.56363,0.75658 -2.26563,1.26758c-0.341,0.305 -0.53988,0.73831 -0.54687,1.19531c0.04,0.173 0.16312,0.31681 0.32813,0.38281c0.147,0.049 0.30122,0.10797 0.44922,0.16797c1.493,0.633 2.89408,1.31497 4.20508,2.04297c0.174,0.126 0.33723,0.26406 0.49023,0.41406c0.1,0.044 0.20741,0.06641 0.31641,0.06641c0.269,0.002 0.53128,-0.09072 0.73828,-0.26172c0.211,-0.15 0.32206,-0.40316 0.28906,-0.66016c0.009,-0.189 -0.1043,-0.36359 -0.2793,-0.43359l-2.25976,-0.99414c-0.75,-0.318 -1.48155,-0.6828 -2.18555,-1.0918c0.494,-0.615 1.16011,-1.07055 1.91211,-1.31055c0.747,-0.241 1.43639,-0.63334 2.02539,-1.15234c0.085,-0.081 0.13186,-0.19355 0.13086,-0.31055c-0.004,-0.165 -0.08189,-0.31992 -0.21289,-0.41992c-0.156,-0.12 -0.34792,-0.18369 -0.54492,-0.17969zM28.86914,35.07227c-0.44,-0.016 -0.86931,0.14341 -1.19531,0.44141c-0.367,0.363 -0.52116,0.88858 -0.41016,1.39258c0.05,0.476 0.24087,0.92692 0.54688,1.29492c0.258,0.344 0.6618,0.54492 1.0918,0.54492c0.282,-0.004 0.55773,-0.0778 0.80273,-0.2168c0.537,-0.384 0.81933,-1.0325 0.73633,-1.6875c-0.027,-0.737 -0.20092,-1.23461 -0.54492,-1.47461c-0.304,-0.202 -0.66234,-0.30492 -1.02734,-0.29492zM20.39453,35.10938c-0.44,-0.017 -0.86931,0.1405 -1.19531,0.4375c-0.369,0.362 -0.52602,0.88758 -0.41602,1.39258c0.053,0.475 0.24387,0.92492 0.54688,1.29492c0.257,0.344 0.6618,0.54592 1.0918,0.54492c0.282,-0.005 0.55673,-0.0788 0.80273,-0.2168c0.491,-0.295 0.73242,-0.8525 0.73242,-1.6875c0.063,-0.548 -0.13516,-1.09461 -0.53516,-1.47461c-0.304,-0.201 -0.66334,-0.30202 -1.02734,-0.29102zM20.37305,36.2832c0.302,0 0.54688,0.24488 0.54688,0.54688c0,0.302 -0.24488,0.54688 -0.54687,0.54688c-0.302,0 -0.54687,-0.24488 -0.54687,-0.54687c0,-0.302 0.24488,-0.54687 0.54688,-0.54687zM28.69531,36.3457c0.301,-0.001 0.54688,0.24292 0.54688,0.54492c0,0.302 -0.24588,0.54688 -0.54688,0.54688c-0.302,0 -0.54492,-0.24488 -0.54492,-0.54687c0,-0.302 0.24292,-0.54492 0.54492,-0.54492zM23.4043,40.17969c-0.012,0.012 -0.01939,0.02597 -0.02539,0.04297v0.04492c0.075,0.209 0.1692,0.40861 0.2832,0.59961c0.103,0.183 0.23281,0.35205 0.38281,0.49805c0.135,0.141 0.29275,0.25775 0.46875,0.34375c0.173,0.073 0.35888,0.11314 0.54688,0.11914l0.02148,0.02344c0.151,0.001 0.30041,-0.02703 0.44141,-0.08203c0.135,-0.055 0.26286,-0.12594 0.38086,-0.21094c0.112,-0.09 0.2175,-0.18792 0.3125,-0.29492c0.09,-0.102 0.16928,-0.21113 0.23828,-0.32812c0.066,-0.103 0.12578,-0.21027 0.17578,-0.32227c0.039,-0.081 0.07075,-0.164 0.09375,-0.25v-0.04883c-0.011,-0.015 -0.02034,-0.03183 -0.02734,-0.04883c-0.142,0.219 -0.31844,0.41127 -0.52344,0.57227c-0.157,0.148 -0.34388,0.26198 -0.54687,0.33398c-0.205,0.071 -0.42167,0.10552 -0.63867,0.10352c-0.185,0.003 -0.36988,-0.02317 -0.54687,-0.07617c-0.152,-0.048 -0.29392,-0.12275 -0.41992,-0.21875c-0.128,-0.103 -0.24375,-0.21866 -0.34375,-0.34766c-0.105,-0.142 -0.19744,-0.29412 -0.27344,-0.45312zM21.95703,42.27539c-2.184,0.115 -3.45691,2.92003 -6.50391,0.33203c-0.83,4.969 5.24228,5.4618 7.73828,3.2168c1.726,-1.54 1.23963,-3.68583 -1.23437,-3.54883zM26.96094,42.27539c-2.08559,0.12863 -2.41109,2.10601 -0.79297,3.54883c2.496,2.244 8.56633,1.7522 7.73633,-3.2168c-3.047,2.588 -4.31891,-0.21803 -6.50391,-0.33203c-0.15462,-0.00856 -0.30041,-0.00858 -0.43945,0z"></path></g></g></svg>